<svg width="100" height="100" viewBox="0 0 100 100" fill="636569" xmlns="http://www.w3.org/2000/svg" preserveAspectRatio="xMinYMax meet">
<path d="M90.1 38.1C88.8 36.8 87.1 36.1 85.2 36.1H24.7V19C24.7 16.1 27.3 13.5 30.2 13.5C33.1 13.5 35.7 16.1 35.7 19C35.7 20.3 36.6 21.3 37.9 21.3C39.2 21.3 40.1 20.4 40.1 19C40.1 13.5 35.6 9 30.1 9C24.6 9 20.2 13.4 20 19V36H17.8C14 36 11 39 11 42.8C11 45.5 12.7 48 15.2 49.1L15.5 49.3V59.5C15.5 66.7 20.5 73.1 27.7 75L28.3 75.1L26 78.9C25.8 79.2 25.6 80 25.8 80.6C26 81.2 26.5 81.6 26.8 81.8C27.2 82.2 27.7 82.2 28 82.2C28.8 82.2 29.5 81.8 29.9 81.1L33.3 75.2H69.6L72.9 81.1C73.3 81.8 74 82.3 74.8 82.3C75.4 82.3 75.7 82.1 76 81.8C76.4 81.5 76.8 81 76.9 80.5C77.1 79.9 76.9 79.4 76.8 78.9V78.8L74.5 75L75.1 74.9C82.3 73.1 87.3 66.7 87.3 59.4V49.4L87.7 49.2C90.3 48.1 91.9 45.6 91.9 42.9C92 41 91.3 39.3 90.1 38.1ZM83 49.9V59.5C83 65.8 77.9 71 71.6 71H31.5C25.2 70.9 20 65.7 20 59.4V49.8H83V49.9ZM15.5 42.8C15.5 41.5 16.5 40.5 17.8 40.5H85.3C86.6 40.5 87.6 41.5 87.6 42.8C87.6 44.1 86.6 45.1 85.3 45.1H17.8C16.5 45.1 15.5 44 15.5 42.8Z" />
</svg>
