<svg width="100" height="100" viewBox="0 0 100 100" fill="none" xmlns="http://www.w3.org/2000/svg">
<path fill-rule="evenodd" clip-rule="evenodd" d="M85.3 48.9V23C85.3 19.1 82.1 16 78.1 16H24.9C20.9 16 17.7 19.1 17.7 23V49.1C13.7 50.6 11 54.3 11 58.5V74.7C11 78.5 14.2 81.7 18.2 81.7C22 81.7 25.1 78.8 25.4 75.2H77.8C78.1 78.8 81.2 81.7 85 81.7C89 81.7 92.2 78.6 92.2 74.7V58.5C92 54.3 89.3 50.6 85.3 48.9ZM82 74.5V72.7L80.1 70.9H22.9L21 72.8V74.6C21 76.1 19.8 77.3 18.2 77.3C16.6 77.3 15.4 76.1 15.4 74.6V58.5C15.4 55.2 18.2 52.5 21.6 52.5H81.5C84.9 52.5 87.7 55.2 87.7 58.5V74.6C87.7 76.1 86.5 77.3 84.9 77.3C83.3 77.3 82 76.1 82 74.5ZM28.4 44C28.6 43.3 29.2 42.8 29.8 42.8H43.6C44.3 42.8 44.9 43.3 45 44L46.3 48.3H27.4L28.4 44ZM57.7 44C57.9 43.3 58.5 42.8 59.1 42.8H73C73.7 42.8 74.3 43.3 74.4 44L75.6 48.3H56.7L57.7 44ZM81 48.3H80.1L78.7 43C78.1 40.4 75.8 38.6 73 38.6H59.3C56.7 38.6 54.3 40.4 53.6 43L52.2 48.3H50.7L49.5 43C48.9 40.4 46.6 38.6 43.8 38.6H30C27.4 38.6 25 40.4 24.3 43L22.9 48.3H22V23C22 21.5 23.2 20.3 24.8 20.3H78C79.7 20.2 81 21.4 81 23V48.3Z" fill="#636569"/>
</svg>
