<svg width="100" height="100" viewBox="0 0 100 100" xmlns="http://www.w3.org/2000/svg">
<path d="M35.2592 20.0002C30.5729 20.0002 25.8895 21.8344 22.3326 25.4558C15.2174 32.702 15.2275 44.4094 22.3326 51.6592L49.5301 79.3942C50.0172 79.888 50.6789 80.1668 51.371 80.1668C52.0664 80.1668 52.7282 79.888 53.2119 79.3942C62.2892 70.1526 71.3596 60.9274 80.4361 51.6858C87.5512 44.4397 87.5512 32.7289 80.4361 25.4825C73.3209 18.2363 61.6709 18.2363 54.5552 25.4825L51.384 28.7075L48.1858 25.4557C44.6282 21.8343 39.9453 20 35.2591 20L35.2592 20.0002ZM35.2592 25.1064C38.5917 25.1064 41.9175 26.4233 44.5042 29.0571L49.5567 34.1903C50.0438 34.6841 50.7056 34.9629 51.3976 34.9629C52.093 34.9629 52.7548 34.6841 53.2386 34.1903L58.2373 29.084C63.4141 23.8132 71.5776 23.8132 76.754 29.084C81.9307 34.3549 81.9307 42.7872 76.754 48.0573C68.2951 56.6711 59.8429 65.2977 51.384 73.9106L26.014 48.0298C20.8406 42.7522 20.8372 34.3266 26.014 29.0565C28.6007 26.4227 31.9265 25.1058 35.259 25.1058L35.2592 25.1064Z" />
</svg>
