<svg width="100" height="100" viewBox="0 0 100 100" fill="none" xmlns="http://www.w3.org/2000/svg">
<path d="M89.3113 48.1066L79.8988 38.6942C78.9811 37.7765 77.4927 37.7765 76.5692 38.6942C75.6515 39.6119 75.6515 41.1062 76.5692 42.0238L81.9637 47.4182L18.0359 47.4123L23.4303 42.0179C24.348 41.1002 24.348 39.6118 23.4303 38.6883C22.5126 37.7706 21.0242 37.7706 20.1007 38.6883L10.6883 48.1007C10.2471 48.5419 10 49.142 10 49.7656C10 50.3892 10.2471 50.9892 10.6883 51.4305L20.1007 60.8429C20.5596 61.3018 21.1655 61.5312 21.7656 61.5312C22.3656 61.5312 22.9716 61.3018 23.4305 60.8429C24.3482 59.9252 24.3482 58.4368 23.4305 57.5133L18.036 52.1189H81.9699L76.5754 57.5133C75.6577 58.4311 75.6577 59.9195 76.5754 60.8429C77.0284 61.3018 77.6343 61.5312 78.2344 61.5312C78.8345 61.5312 79.4404 61.3018 79.8993 60.8429L89.3117 51.4305C89.7529 50.9893 90 50.3892 90 49.7656C90 49.142 89.7529 48.542 89.3117 48.1066L89.3113 48.1066Z" fill="#636569"/>
</svg>
