<svg width="100" height="100" viewBox="0 0 100 100" fill="none" xmlns="http://www.w3.org/2000/svg">
<path fill-rule="evenodd" clip-rule="evenodd" d="M42.5 62C53.2696 62 62 53.2696 62 42.5C62 31.7304 53.2696 23 42.5 23C31.7304 23 23 31.7304 23 42.5C23 53.2696 31.7304 62 42.5 62ZM42.5 68C56.5833 68 68 56.5833 68 42.5C68 28.4167 56.5833 17 42.5 17C28.4167 17 17 28.4167 17 42.5C17 56.5833 28.4167 68 42.5 68Z" fill="#636569"/>
<path fill-rule="evenodd" clip-rule="evenodd" d="M58.9178 57.5815C60.0893 56.4099 61.9888 56.4099 63.1604 57.5815L83.1213 77.5424C84.2929 78.714 84.2929 80.6135 83.1213 81.785C81.9498 82.9566 80.0503 82.9566 78.8787 81.785L58.9178 61.8241C57.7462 60.6525 57.7462 58.753 58.9178 57.5815Z" fill="#636569"/>
</svg>
